<svg width="130" height="138" viewBox="0 0 130 138" fill="none" xmlns="http://www.w3.org/2000/svg">
<rect width="129.999" height="138" fill="black" fill-opacity="0"/>
<path d="M68.7637 87.3748C71.1625 87.1885 73.3493 85.9672 74.7688 84.0191L96.3445 54.2479C97.0058 53.3348 96.9067 52.0744 96.1048 51.274C95.3029 50.4759 94.0401 50.377 93.1253 51.0348L63.2931 72.5766C61.3483 73.9888 60.1247 76.1715 59.938 78.5658C59.7513 80.9601 60.6201 83.3038 62.3184 84.9989C63.8646 86.5445 65.9501 87.4001 68.1184 87.4001C68.3328 87.4001 68.5471 87.3909 68.7637 87.3748ZM64.5329 78.9246C64.6135 77.8735 65.1527 76.9144 66.0007 76.298L84.1982 63.1581L71.0381 81.3166C70.4159 82.1699 69.455 82.7058 68.4019 82.7886C67.3534 82.8576 66.3234 82.4942 65.5744 81.7467C64.8324 81.0038 64.4499 79.9734 64.5329 78.9246Z" fill="white"/>
<path d="M120.381 44.9972C120.358 44.9489 120.358 44.8983 120.332 44.85C120.305 44.804 120.261 44.7787 120.231 44.735C117.901 40.7468 115.145 37.0369 112.016 33.6743L116.966 28.7362L120.224 31.9884L129.999 22.2295L120.224 12.4729L110.447 22.2295L113.707 25.484L108.758 30.4221C105.389 27.2987 101.674 24.5456 97.6761 22.2203C97.6323 22.1904 97.6069 22.1467 97.5608 22.1191C97.5125 22.0915 97.4618 22.0938 97.4134 22.0685C90.286 17.9699 82.2784 15.2398 73.7408 14.2393V11.5H77.1973C80.375 11.5 82.9582 8.9217 82.9582 5.75C82.9582 2.5783 80.3727 0 77.195 0H56.4558C53.2781 0 50.6949 2.5783 50.6949 5.75C50.6949 8.9217 53.2781 11.5 56.4558 11.5H59.9123V14.1588C57.4236 14.4233 54.9396 14.8281 52.4831 15.3893C51.2434 15.6722 50.4668 16.9073 50.7526 18.1447C51.036 19.3821 52.2734 20.1595 53.5132 19.872C55.6332 19.3867 57.7739 19.021 59.9193 18.7749L62.3918 18.584C63.1477 18.5265 63.8436 18.4851 64.521 18.4529V23C64.521 24.2719 65.5511 25.3 66.8254 25.3C68.0997 25.3 69.1298 24.2719 69.1298 23V18.469C77.7964 18.8669 85.963 21.1899 93.2241 25.0125L90.952 28.9386C90.316 30.0403 90.6939 31.4456 91.7954 32.0804C92.1571 32.2897 92.5535 32.3886 92.9452 32.3886C93.7425 32.3886 94.5168 31.9769 94.9431 31.2386L97.2083 27.3217C104.419 31.8872 110.544 38.0006 115.118 45.1973L111.193 47.4582C110.094 48.093 109.716 49.4983 110.355 50.6C110.783 51.3383 111.555 51.75 112.352 51.75C112.744 51.75 113.141 51.6511 113.502 51.4418L117.436 49.174C121.319 56.5248 123.653 64.8094 124.001 73.5977H119.45C118.176 73.5977 117.146 74.6258 117.146 75.8977C117.146 77.1696 118.176 78.1977 119.45 78.1977H124.001C123.653 86.986 121.319 95.2706 117.436 102.621L113.502 100.354C112.401 99.7188 110.991 100.091 110.355 101.195C109.719 102.297 110.097 103.702 111.198 104.337L115.122 106.598C110.548 113.795 104.423 119.908 97.2129 124.474L94.9477 120.557C94.3094 119.453 92.8968 119.078 91.8 119.715C90.6962 120.35 90.3183 121.757 90.9566 122.857L93.2287 126.783C85.9676 130.605 77.801 132.928 69.1344 133.326V128.8C69.1344 127.528 68.1043 126.5 66.83 126.5C65.5557 126.5 64.5257 127.528 64.5257 128.8V133.345C60.8456 133.218 57.154 132.758 53.5201 131.926C52.2803 131.629 51.0429 132.416 50.7595 133.653C50.4737 134.89 51.2503 136.126 52.49 136.408C57.0895 137.466 61.7881 138 66.4498 138C66.5627 138 66.671 137.993 66.7839 137.991C66.8001 137.991 66.8116 138 66.8254 138C66.8438 138 66.86 137.988 66.8784 137.988C77.9554 137.913 88.348 134.927 97.3396 129.771C97.4111 129.738 97.4871 129.722 97.5562 129.681C97.6023 129.653 97.6277 129.61 97.6715 129.58C106.979 124.166 114.756 116.412 120.192 107.129C120.236 107.067 120.291 107.019 120.33 106.95C120.358 106.902 120.355 106.851 120.379 106.803C125.642 97.6948 128.667 87.147 128.667 75.9C128.667 64.653 125.642 54.1052 120.381 44.9972ZM120.222 18.9773L123.48 22.2295L120.222 25.484L116.961 22.2295L120.222 18.9773ZM64.521 13.8483V6.9H56.4558C55.8221 6.9 55.3036 6.3825 55.3036 5.75C55.3036 5.1175 55.8221 4.6 56.4558 4.6H77.195C77.8287 4.6 78.3472 5.1175 78.3472 5.75C78.3472 6.3825 77.8287 6.9 77.195 6.9H69.1298V13.8483C68.3278 13.8161 67.5628 13.8 66.8254 13.8C66.7609 13.8 66.6871 13.8046 66.6226 13.8046C66.565 13.8046 66.5074 13.8 66.4498 13.8C66.0719 13.8 65.694 13.8253 65.3161 13.8322C65.0487 13.8391 64.7976 13.8368 64.521 13.8483Z" fill="white"/>
<path d="M46.0868 32.2H34.5651C33.2908 32.2 32.2607 33.2281 32.2607 34.5C32.2607 35.7719 33.2908 36.8 34.5651 36.8H46.0868C47.3612 36.8 48.3912 35.7719 48.3912 34.5C48.3912 33.2281 47.3612 32.2 46.0868 32.2Z" fill="white"/>
<path d="M46.0871 48.3H23.0436C21.7693 48.3 20.7393 49.3281 20.7393 50.6C20.7393 51.8719 21.7693 52.9 23.0436 52.9H46.0871C47.3614 52.9 48.3915 51.8719 48.3915 50.6C48.3915 49.3281 47.3614 48.3 46.0871 48.3Z" fill="white"/>
<path d="M46.0869 64.3999H11.5216C10.2473 64.3999 9.21729 65.428 9.21729 66.6999C9.21729 67.9718 10.2473 68.9999 11.5216 68.9999H46.0869C47.3612 68.9999 48.3913 67.9718 48.3913 66.6999C48.3913 65.428 47.3612 64.3999 46.0869 64.3999Z" fill="white"/>
<path d="M46.087 80.5H2.30435C1.03005 80.5 0 81.5281 0 82.8C0 84.0719 1.03005 85.1 2.30435 85.1H46.087C47.3613 85.1 48.3914 84.0719 48.3914 82.8C48.3914 81.5281 47.3613 80.5 46.087 80.5Z" fill="white"/>
<path d="M46.0871 96.6001H16.1305C14.8562 96.6001 13.8262 97.6282 13.8262 98.9001C13.8262 100.172 14.8562 101.2 16.1305 101.2H46.0871C47.3614 101.2 48.3914 100.172 48.3914 98.9001C48.3914 97.6282 47.3614 96.6001 46.0871 96.6001Z" fill="white"/>
<path d="M46.0872 112.7H29.9567C28.6824 112.7 27.6523 113.728 27.6523 115C27.6523 116.272 28.6824 117.3 29.9567 117.3H46.0872C47.3615 117.3 48.3915 116.272 48.3915 115C48.3915 113.728 47.3615 112.7 46.0872 112.7Z" fill="white"/>
</svg>
