<svg width="144" height="144" viewBox="0 0 144 144" fill="none" xmlns="http://www.w3.org/2000/svg">
<rect width="143.999" height="144" fill="black" fill-opacity="0"/>
<path d="M134.861 93.9452C135.961 89.1758 136.551 84.3146 136.551 79.4483C136.551 56.8677 125.054 36.3055 105.793 24.4478C104.618 23.7278 103.094 24.0928 102.376 25.2597C101.656 26.429 102.021 27.9559 103.188 28.6759C120.97 39.6249 131.586 58.6031 131.586 79.4483C131.586 83.7336 131.089 88.0163 130.163 92.2271C129.019 91.9888 127.834 91.8621 126.62 91.8621C117.037 91.8621 109.241 99.6605 109.241 109.241C109.241 118.822 117.037 126.621 126.62 126.621C136.204 126.621 144 118.822 144 109.241C144 102.64 140.298 96.8872 134.861 93.9452ZM126.62 121.655C119.775 121.655 114.207 116.086 114.207 109.241C114.207 102.396 119.775 96.8277 126.62 96.8277C133.465 96.8277 139.034 102.396 139.034 109.241C139.034 116.086 133.465 121.655 126.62 121.655Z" fill="white"/>
<path d="M94.7694 134.521C87.5321 137.515 79.8728 139.034 72 139.034C56.1476 139.034 40.8985 132.641 29.7509 121.427C32.8444 118.286 34.7586 113.986 34.7586 109.241C34.7586 99.6604 26.9628 91.8621 17.3793 91.8621C7.79586 91.8621 0 99.6604 0 109.241C0 118.822 7.79586 126.621 17.3793 126.621C20.4232 126.621 23.2833 125.829 25.7735 124.448C37.8869 136.889 54.6058 144 72 144C80.5283 144 88.8281 142.354 96.6687 139.106C97.9349 138.583 98.5382 137.13 98.0143 135.862C97.4905 134.598 96.0356 133.997 94.7694 134.521ZM4.96552 109.241C4.96552 102.396 10.5343 96.8276 17.3793 96.8276C24.2243 96.8276 29.7931 102.396 29.7931 109.241C29.7931 116.086 24.2243 121.655 17.3793 121.655C10.5343 121.655 4.96552 116.086 4.96552 109.241Z" fill="white"/>
<path d="M9.93087 77.4943C9.99045 77.4993 10.05 77.5018 10.1071 77.5018C11.4007 77.5018 12.4881 76.5037 12.5825 75.1928C14.3502 50.1443 31.4167 29.2121 55.3356 22.2753C57.4558 29.4803 64.1171 34.7586 71.9998 34.7586C81.5833 34.7586 89.3791 26.9603 89.3791 17.3793C89.3791 7.79835 81.5833 0 71.9998 0C62.4387 0 54.6578 7.76359 54.623 17.3172C28.3529 24.6339 9.56094 47.4703 7.62935 74.8452C7.53252 76.2108 8.56287 77.4 9.93087 77.4943ZM71.9998 4.96552C78.8448 4.96552 84.4136 10.5343 84.4136 17.3793C84.4136 24.2243 78.8448 29.7931 71.9998 29.7931C65.1549 29.7931 59.586 24.2243 59.586 17.3793C59.586 10.5343 65.1549 4.96552 71.9998 4.96552Z" fill="white"/>
</svg>
