<svg width="70" height="22" viewBox="0 0 70 22" fill="none" xmlns="http://www.w3.org/2000/svg">
<rect width="70" height="21.8182" fill="black" fill-opacity="0"/>
<path d="M12.5656 21.4773H9.29512V19.289H9.23771C8.91229 19.9708 8.41505 20.5626 7.74598 21.0644C7.0769 21.5662 6.16864 21.8172 5.02119 21.8174C4.10312 21.8174 3.32375 21.6706 2.68307 21.377C2.0424 21.0835 1.52108 20.6858 1.11911 20.1839C0.717283 19.6823 0.430351 19.1093 0.258316 18.4652C0.0842675 17.8068 -0.0025473 17.1288 5.6889e-05 16.4482V7.84063H3.44262V14.7437C3.44262 15.1229 3.46176 15.544 3.50003 16.0071C3.5344 16.4551 3.63594 16.8955 3.8013 17.3139C3.95726 17.7128 4.21438 18.0652 4.54789 18.3372C4.88235 18.612 5.35566 18.7493 5.9678 18.7492C6.54166 18.7492 7.02457 18.6545 7.41652 18.4652C7.79602 18.2858 8.12952 18.0235 8.39193 17.6982C8.65314 17.3706 8.84365 16.9935 8.95167 16.5901C9.06751 16.1638 9.12516 15.7241 9.12308 15.2827V7.84063H12.5656V21.4773Z" fill="white"/>
<path d="M22.0903 11.6189C21.4206 10.6912 20.522 10.2272 19.3945 10.227C18.9355 10.227 18.4861 10.3406 18.0462 10.5679C17.6064 10.7951 17.3861 11.1645 17.3853 11.676C17.3853 12.0927 17.567 12.3958 17.9304 12.5852C18.2938 12.7746 18.7528 12.9355 19.3075 13.0681C19.862 13.2008 20.4597 13.3381 21.1005 13.4799C21.7254 13.6164 22.3286 13.8362 22.8937 14.1334C23.4428 14.4223 23.9147 14.8361 24.2708 15.3408C24.6338 15.8521 24.8155 16.5528 24.8159 17.443C24.8159 18.2581 24.639 18.9446 24.2852 19.5025C23.9395 20.0531 23.4677 20.5154 22.9081 20.8519C22.3438 21.1929 21.7079 21.4391 21.0003 21.5906C20.3028 21.7409 19.5912 21.817 18.8774 21.8178C17.806 21.8178 16.821 21.6662 15.9226 21.3632C15.0241 21.0601 14.2207 20.5107 13.5122 19.7151L15.8073 17.5853C16.2463 18.078 16.7196 18.4804 17.2272 18.7926C17.7348 19.1048 18.3516 19.261 19.0776 19.2613C19.3383 19.2595 19.598 19.2305 19.8524 19.1747C20.115 19.1202 20.3671 19.0246 20.5992 18.8912C20.8195 18.767 21.0103 18.5975 21.1587 18.394C21.3022 18.1952 21.3739 17.9632 21.3738 17.6982C21.3738 17.225 21.1921 16.8747 20.8287 16.6471C20.4652 16.4196 20.0062 16.2349 19.4515 16.0931C18.8966 15.9511 18.299 15.8186 17.6586 15.6955C17.0359 15.5789 16.4323 15.3783 15.8647 15.0993C15.3181 14.832 14.8455 14.437 14.4874 13.9484C14.1239 13.4561 13.9422 12.7743 13.9423 11.903C13.9423 11.1456 14.1001 10.4875 14.4156 9.92845C14.7208 9.3815 15.1476 8.9104 15.6637 8.55076C16.1801 8.19118 16.773 7.92628 17.4425 7.75606C18.108 7.58609 18.7925 7.50017 19.4797 7.50033C20.3978 7.50033 21.3063 7.65655 22.2051 7.969C23.104 8.28145 23.8311 8.81648 24.3865 9.57409L22.0903 11.6189Z" fill="white"/>
<path d="M34.9423 19.6014H34.8563C34.3587 20.3782 33.7276 20.9419 32.963 21.2927C32.1985 21.6434 31.357 21.8186 30.4385 21.8182C29.8127 21.8189 29.1898 21.7328 28.5881 21.5625C27.9857 21.392 27.4502 21.1363 26.9815 20.7955C26.5142 20.4562 26.1274 20.0199 25.8483 19.517C25.5614 19.0057 25.418 18.4091 25.418 17.7273C25.418 16.9887 25.5519 16.359 25.8197 15.8382C26.0773 15.3298 26.4445 14.8837 26.8955 14.5314C27.3447 14.1812 27.866 13.9019 28.4595 13.6935C29.061 13.4831 29.6802 13.3263 30.3099 13.2249C30.9508 13.1208 31.5974 13.0544 32.2463 13.026C32.8963 12.9976 33.5083 12.9834 34.0823 12.9834H34.9423V12.6133C34.9423 11.761 34.6458 11.1218 34.0529 10.6957C33.4599 10.2695 32.7044 10.0565 31.7864 10.0567C31.0593 10.0567 30.3802 10.1845 29.7491 10.4401C29.118 10.6958 28.573 11.0415 28.1139 11.4771L26.3065 9.68742C27.0712 8.9112 27.9654 8.35253 28.9889 8.01142C30.0104 7.67027 31.0814 7.49708 32.1595 7.49874C33.1349 7.49874 33.9573 7.60741 34.6266 7.82477C35.2959 8.04212 35.8506 8.32142 36.2906 8.66267C36.7303 9.00364 37.0698 9.39664 37.3092 9.84167C37.5405 10.267 37.7141 10.7207 37.8255 11.191C37.9275 11.625 37.9899 12.0671 38.012 12.5121C38.0306 12.9384 38.0402 13.3124 38.0406 13.6342V21.4773H34.9423V19.6026V19.6014ZM34.7414 15.3687H34.0243C33.546 15.3687 33.0105 15.3877 32.4177 15.4256C31.8505 15.4593 31.2882 15.5498 30.7393 15.6956C30.2131 15.8375 29.7684 16.0458 29.4052 16.3205C29.0421 16.5952 28.8604 16.9787 28.8601 17.471C28.8601 17.7932 28.9319 18.0631 29.0754 18.2806C29.2215 18.5012 29.4119 18.6897 29.6347 18.8344C29.8707 18.9888 30.1332 19.0992 30.4093 19.1604C30.6913 19.2264 30.9801 19.2597 31.2699 19.2599C32.4556 19.2599 33.3306 18.9805 33.8948 18.4218C34.4591 17.863 34.7412 17.1007 34.741 16.1349V15.3687H34.7414Z" fill="white"/>
<path d="M39.4458 0C39.4458 0 42.8886 0.940599 42.8886 4.21802V9.57348H42.9746C43.1466 9.34621 43.3665 9.11419 43.6343 8.87741C43.9021 8.64063 44.2273 8.41811 44.6097 8.20986C44.9921 8.00161 45.432 7.83119 45.9294 7.6986C46.4269 7.56602 47.0007 7.49972 47.6508 7.49972C48.6262 7.49972 49.5248 7.68441 50.3466 8.05377C51.1684 8.42314 51.8713 8.92971 52.4553 9.57348C53.0385 10.2175 53.4927 10.9751 53.818 11.8461C54.1432 12.7172 54.3058 13.6545 54.3057 14.6581C54.3057 15.6622 54.1526 16.5995 53.8466 17.4701C53.5405 18.3408 53.0911 19.0983 52.4983 19.7428C51.9052 20.3868 51.188 20.8934 50.3466 21.2625C49.5052 21.6316 48.5586 21.8163 47.5068 21.8165C46.5314 21.8165 45.6229 21.6272 44.7814 21.2484C43.9398 20.8697 43.2704 20.2637 42.7731 19.4304H42.7159V21.4773H39.4458V0ZM50.8639 14.6585C50.865 14.1353 50.7727 13.616 50.5913 13.1246C50.4145 12.6403 50.1416 12.196 49.7887 11.8178C49.4282 11.4343 48.9946 11.1253 48.5129 10.9086C48.0153 10.6813 47.4511 10.5677 46.8203 10.5679C46.1895 10.568 45.6252 10.6816 45.1275 10.9086C44.6457 11.1252 44.212 11.4342 43.8516 11.8178C43.4985 12.1958 43.2256 12.6402 43.0491 13.1246C42.6857 14.1156 42.6857 15.2015 43.0491 16.1925C43.2254 16.677 43.4983 17.1214 43.8516 17.4993C44.2119 17.883 44.6456 18.192 45.1275 18.4083C45.6247 18.6356 46.1889 18.7492 46.8203 18.7492C47.4516 18.7492 48.0158 18.6356 48.5129 18.4083C48.9947 18.1918 49.4283 17.8829 49.7887 17.4993C50.1418 17.1212 50.4147 16.6769 50.5913 16.1925C50.7728 15.7011 50.8651 15.1818 50.8639 14.6585Z" fill="white"/>
<path d="M54.7939 3.21018C54.7939 2.66109 54.9997 2.18284 55.4113 1.77544C55.8229 1.36804 56.3442 1.16427 56.9753 1.16414C57.6063 1.16414 58.137 1.35819 58.5674 1.7463C58.9978 2.13442 59.213 2.6221 59.213 3.20937C59.213 3.79663 58.9978 4.28432 58.5674 4.67243C58.137 5.06054 57.6063 5.25467 56.9753 5.2548C56.3442 5.2548 55.8229 5.05103 55.4113 4.64349C54.9997 4.23596 54.7939 3.75818 54.7939 3.21018ZM55.2817 7.84063H58.7244V21.4773H55.2817V7.84063Z" fill="white"/>
<path d="M59.9292 10.7386V7.84063H62.769V3.89199H66.2116V7.84063H69.998V10.7386H66.2116V16.7038C66.2116 17.3855 66.3407 17.9252 66.5989 18.3229C66.8571 18.7207 67.3691 18.9196 68.135 18.9196C68.4721 18.9167 68.8081 18.8834 69.1391 18.8201C69.5022 18.7541 69.7891 18.6454 69.9999 18.4941V21.3632C69.6363 21.5336 69.1916 21.652 68.6658 21.7183C68.1399 21.7846 67.6761 21.8178 67.2743 21.8178C66.3563 21.8178 65.6056 21.7183 65.0222 21.5195C64.4387 21.3206 63.9796 21.0175 63.645 20.6102C63.3102 20.2027 63.0806 19.6961 62.9565 19.0903C62.8323 18.4846 62.7702 17.7839 62.7701 16.9882V10.7386H59.9302H59.9292Z" fill="white"/>
</svg>
